<svg width="111" height="34" viewBox="0 0 111 34" fill="none" xmlns="http://www.w3.org/2000/svg">
<path d="M8.38863 22.7716H16.776V25.3088H8.38863C7.27473 25.309 6.17195 25.0873 5.14466 24.6566C4.11738 24.226 3.18616 23.595 2.40538 22.8006C1.62459 22.0061 1.00987 21.0641 0.597107 20.0295C0.184339 18.9949 -0.0182088 17.8884 0.00128451 16.7747C0.000189432 15.6784 0.220656 14.5933 0.649446 13.5844C1.07824 12.5754 1.7065 11.6636 2.49652 10.9036C3.25795 10.1082 4.17255 9.47517 5.18518 9.04273C6.19781 8.61029 7.28752 8.38735 8.38863 8.38736H16.776V10.9665H8.38863C7.60988 10.9561 6.83706 11.1031 6.11647 11.3985C5.39587 11.694 4.74231 12.1318 4.19496 12.6859C3.63217 13.2277 3.18716 13.8798 2.88771 14.6013C2.58826 15.3229 2.44082 16.0984 2.45458 16.8795C2.47433 18.4183 3.09962 19.8874 4.19496 20.9684C4.73289 21.5405 5.3828 21.9959 6.10426 22.3061C6.82572 22.6164 7.6033 22.7748 8.38863 22.7716V22.7716Z" fill="#F4F4F4"/>
<path d="M18.726 0H21.2632V8.38734H27.2601C29.4846 8.38734 31.618 9.27101 33.1909 10.8439C34.7638 12.4169 35.6475 14.5502 35.6475 16.7747V25.162H33.0684V16.7747C33.0363 15.2443 32.414 13.7856 31.3316 12.7032C30.2493 11.6208 28.7905 10.9986 27.2601 10.9665H21.2632V25.3088H18.726V0Z" fill="#F4F4F4"/>
<path d="M38.9815 10.9665V8.38736H49.1092C50.4514 8.39291 51.7367 8.92997 52.6838 9.88099C53.6308 10.832 54.1626 12.1195 54.1626 13.4617V20.2555C54.1571 21.594 53.6229 22.8761 52.6764 23.8226C51.7299 24.7691 50.4477 25.3033 49.1092 25.3088H42.3574C41.6958 25.3171 41.039 25.1943 40.4251 24.9475C39.8112 24.7007 39.2522 24.3348 38.7805 23.8708C38.3087 23.4068 37.9335 22.8541 37.6765 22.2443C37.4195 21.6346 37.2858 20.98 37.283 20.3184C37.2632 19.6594 37.3817 19.0036 37.6309 18.3932C37.8801 17.7829 38.2545 17.2315 38.7299 16.7747C39.2055 16.3011 39.7721 15.9287 40.3955 15.68C41.019 15.4314 41.6864 15.3116 42.3574 15.3279H51.6254V13.5665C51.6268 12.8863 51.3636 12.2321 50.8915 11.7423C50.6662 11.4943 50.3908 11.2969 50.0836 11.1632C49.7763 11.0295 49.4442 10.9624 49.1092 10.9665H38.9815ZM42.3574 22.7717H49.1092C49.4408 22.7785 49.7702 22.7168 50.0769 22.5905C50.3835 22.4643 50.6609 22.2761 50.8915 22.0378C51.1259 21.8042 51.3115 21.5263 51.4375 21.2203C51.5635 20.9143 51.6274 20.5864 51.6254 20.2555V17.886H42.3574C42.0243 17.8773 41.6929 17.936 41.383 18.0585C41.0731 18.181 40.7912 18.3648 40.5541 18.5989C40.3227 18.8237 40.1387 19.0926 40.013 19.3898C39.8874 19.6869 39.8227 20.0062 39.8227 20.3288C39.8227 20.6515 39.8874 20.9708 40.013 21.2679C40.1387 21.5651 40.3227 21.834 40.5541 22.0587C40.7912 22.2929 41.0731 22.4767 41.383 22.5992C41.6929 22.7217 42.0243 22.7804 42.3574 22.7717V22.7717Z" fill="#F4F4F4"/>
<path d="M64.2903 10.9665C63.512 10.9597 62.7403 11.1083 62.0202 11.4035C61.3001 11.6988 60.6461 12.1347 60.0966 12.6859C59.5376 13.2295 59.0965 13.8824 58.8007 14.6038C58.5049 15.3253 58.3607 16.0999 58.3772 16.8795V25.2669H55.84V16.8795C55.84 14.6551 56.7237 12.5217 58.2966 10.9488C59.8696 9.37585 62.0029 8.49219 64.2274 8.49219C66.4518 8.49219 68.5852 9.37585 70.1581 10.9488C71.7311 12.5217 72.6147 14.6551 72.6147 16.8795V25.2669H70.1824V16.8795C70.2053 16.0991 70.064 15.3226 69.7679 14.6002C69.4717 13.8778 69.0271 13.2256 68.463 12.6859C67.9248 12.1254 67.2759 11.6831 66.5576 11.3871C65.8392 11.0911 65.067 10.9478 64.2903 10.9665V10.9665Z" fill="#F4F4F4"/>
<path d="M82.8473 8.38733H91.2346V28.6428C91.2418 29.3069 91.1135 29.9656 90.8575 30.5785C90.6015 31.1914 90.2233 31.7456 89.7458 32.2074C89.2872 32.6888 88.7335 33.0698 88.1199 33.326C87.5062 33.5823 86.8461 33.7083 86.1812 33.6961H75.2567V31.1799H86.2232C86.5561 31.1828 86.8861 31.1173 87.1926 30.9874C87.4992 30.8576 87.7759 30.6662 88.0055 30.4251C88.2459 30.196 88.4354 29.919 88.5618 29.6119C88.6883 29.3049 88.7488 28.9747 88.7394 28.6428V25.3088H82.8473C81.7364 25.3296 80.6331 25.1226 79.6053 24.7007C78.5776 24.2788 77.6471 23.6508 76.8713 22.8555C76.0762 22.0785 75.4469 21.1483 75.0216 20.1211C74.5963 19.0939 74.3839 17.9912 74.397 16.8795C74.3802 15.7673 74.591 14.6635 75.0165 13.6358C75.442 12.6081 76.0732 11.6783 76.8713 10.9035C77.6424 10.0979 78.5706 9.45888 79.5985 9.0261C80.6264 8.59331 81.7321 8.37591 82.8473 8.38733ZM82.8473 22.7297H88.7394V10.9664H82.8473C81.2807 10.972 79.7799 11.5967 78.6722 12.7044C77.5645 13.8122 76.9397 15.313 76.9342 16.8795C76.9152 17.6594 77.0582 18.4348 77.3541 19.1567C77.6501 19.8785 78.0925 20.5311 78.6536 21.0732C79.2048 21.6205 79.8596 22.0526 80.5796 22.3442C81.2996 22.6358 82.0705 22.7811 82.8473 22.7716V22.7297Z" fill="#F4F4F4"/>
<path d="M110.001 16.8795V17.886H95.7638C95.9887 19.2535 96.6953 20.4955 97.7558 21.3877C98.8366 22.2926 100.204 22.7832 101.614 22.7716H109.163V25.3088H101.53C100.426 25.3251 99.3304 25.1159 98.3101 24.6941C97.2897 24.2722 96.3662 23.6466 95.596 22.8555C94.8037 22.0775 94.1777 21.1466 93.756 20.1193C93.3343 19.0921 93.1256 17.9898 93.1427 16.8795C93.1427 14.6551 94.0264 12.5217 95.5993 10.9488C97.1723 9.37584 99.3056 8.49218 101.53 8.49218C102.646 8.4551 103.756 8.65031 104.792 9.06542C105.828 9.48054 106.767 10.1065 107.548 10.9035C108.343 11.6793 108.971 12.6098 109.393 13.6376C109.815 14.6654 110.022 15.7687 110.001 16.8795V16.8795ZM105.221 12.2036C104.452 11.6065 103.547 11.2092 102.587 11.0472C101.628 10.8851 100.643 10.9634 99.7205 11.2749C98.7984 11.5864 97.9678 12.1216 97.3029 12.8325C96.6381 13.5434 96.1597 14.4079 95.9106 15.3488H107.296C106.979 14.0962 106.248 12.9876 105.221 12.2036Z" fill="#F4F4F4"/>
</svg>
